<svg width="48" height="48" viewBox="0 0 48 48" fill="none" xmlns="http://www.w3.org/2000/svg">
<g clip-path="url(#clip0_3036_9258)">
<path fill-rule="evenodd" clip-rule="evenodd" d="M48 24C48 37.2547 37.2547 48 24 48C10.7453 48 0 37.2547 0 24C0 10.7453 10.7453 0 24 0C37.2547 0 48 10.7453 48 24Z" fill="#FF492C"/>
<path fill-rule="evenodd" clip-rule="evenodd" d="M16.4075 24C16.4075 28.32 19.9244 31.8344 24.2473 31.8344C26.1972 31.8344 27.9818 31.1175 29.3548 29.9361L32.3272 35.0805C30.0607 36.7337 27.2683 37.7101 24.2473 37.7101C16.6704 37.7101 10.5279 31.5721 10.5279 24C10.5279 16.4283 16.6704 10.29 24.2473 10.29C25.1661 10.29 26.0633 10.3808 26.9312 10.5529L24.2473 16.1659C19.9244 16.1659 16.4075 19.6804 16.4075 24ZM34.4015 18.3804H30.2999C30.4113 17.7375 30.8078 17.379 31.6135 16.971L32.3693 16.5876C33.7201 15.8956 34.4387 15.1166 34.4387 13.8431C34.4387 13.0395 34.129 12.4088 33.5093 11.9516C32.9022 11.4941 32.1586 11.2714 31.3035 11.2714C30.622 11.2714 30.0024 11.4446 29.4323 11.803C28.8748 12.1494 28.4534 12.5945 28.1933 13.1507L29.383 14.3377C29.8413 13.4105 30.5106 12.9529 31.3903 12.9529C32.1339 12.9529 32.5925 13.3363 32.5925 13.8677C32.5925 14.3131 32.3693 14.6837 31.5142 15.1166L31.031 15.3515C29.9777 15.8831 29.2466 16.4889 28.8252 17.1813C28.404 17.8612 28.1933 18.7388 28.1933 19.79V20.0744H34.4015V18.3804ZM33.844 22.0372H27.0631L23.6729 27.9106H30.4537L33.844 33.7844L37.2342 27.9106L33.844 22.0372Z" fill="white"/>
</g>
<defs>
<clipPath id="clip0_3036_9258">
<rect width="48" height="48" fill="white"/>
</clipPath>
</defs>
</svg>
